<svg width="48" height="48" viewBox="0 0 48 48" fill="none" xmlns="http://www.w3.org/2000/svg">
<path d="M24 34.8C20.25 34.8 16.935 32.88 15 30C15.045 27 21 25.35 24 25.35C27 25.35 32.955 27 33 30C31.065 32.88 27.75 34.8 24 34.8ZM24 13.5C25.1935 13.5 26.3381 13.9741 27.182 14.818C28.0259 15.6619 28.5 16.8065 28.5 18C28.5 19.1935 28.0259 20.3381 27.182 21.182C26.3381 22.0259 25.1935 22.5 24 22.5C22.8065 22.5 21.6619 22.0259 20.818 21.182C19.9741 20.3381 19.5 19.1935 19.5 18C19.5 16.8065 19.9741 15.6619 20.818 14.818C21.6619 13.9741 22.8065 13.5 24 13.5ZM24 9C22.0302 9 20.0796 9.38799 18.2597 10.1418C16.4399 10.8956 14.7863 12.0005 13.3934 13.3934C10.5804 16.2064 9 20.0218 9 24C9 27.9782 10.5804 31.7936 13.3934 34.6066C14.7863 35.9995 16.4399 37.1044 18.2597 37.8582C20.0796 38.612 22.0302 39 24 39C27.9782 39 31.7936 37.4196 34.6066 34.6066C37.4196 31.7936 39 27.9782 39 24C39 15.705 32.25 9 24 9Z" fill="white"/>
</svg>
