<svg width="124" height="56" viewBox="0 0 124 56" fill="none" xmlns="http://www.w3.org/2000/svg">
<path d="M57.9286 29.8307V35.7605H56.9439V34.884C56.7563 35.187 56.493 35.425 56.154 35.5982C55.8221 35.7641 55.4542 35.847 55.0503 35.847C54.5886 35.847 54.1738 35.7533 53.8059 35.5657C53.438 35.3709 53.1458 35.0824 52.9294 34.7C52.7202 34.3177 52.6156 33.8524 52.6156 33.3042V29.8307H53.5895V33.1743C53.5895 33.7586 53.7374 34.2095 54.0331 34.5269C54.3289 34.8371 54.7329 34.9922 55.245 34.9922C55.7717 34.9922 56.1864 34.8299 56.4894 34.5053C56.7924 34.1806 56.9439 33.7081 56.9439 33.0877V29.8307H57.9286Z" fill="white"/>
<path d="M66.722 29.7225C67.1837 29.7225 67.5949 29.8199 67.9556 30.0146C68.3163 30.2022 68.6012 30.4872 68.8104 30.8695C69.0196 31.2518 69.1242 31.7171 69.1242 32.2654V35.7605H68.1504V32.406C68.1504 31.8145 68.0025 31.3636 67.7067 31.0534C67.4182 30.736 67.025 30.5773 66.5273 30.5773C66.0151 30.5773 65.6075 30.7432 65.3045 31.0751C65.0015 31.3997 64.8501 31.8722 64.8501 32.4926V35.7605H63.8762V32.406C63.8762 31.8145 63.7283 31.3636 63.4325 31.0534C63.144 30.736 62.7508 30.5773 62.2531 30.5773C61.7409 30.5773 61.3333 30.7432 61.0303 31.0751C60.7274 31.3997 60.5759 31.8722 60.5759 32.4926V35.7605H59.5912V29.8307H60.5759V30.6855C60.7706 30.3753 61.0303 30.1373 61.355 29.9714C61.6868 29.8054 62.0511 29.7225 62.4479 29.7225C62.9456 29.7225 63.3856 29.8343 63.768 30.0579C64.1503 30.2816 64.4353 30.6098 64.6228 31.0426C64.7887 30.6242 65.0629 30.2996 65.4452 30.0688C65.8275 29.8379 66.2531 29.7225 66.722 29.7225Z" fill="white"/>
<path d="M80.7552 29.7225C81.2169 29.7225 81.6281 29.8199 81.9888 30.0146C82.3494 30.2022 82.6344 30.4872 82.8436 30.8695C83.0528 31.2518 83.1574 31.7171 83.1574 32.2654V35.7605H82.1835V32.406C82.1835 31.8145 82.0356 31.3636 81.7399 31.0534C81.4513 30.736 81.0582 30.5773 80.5604 30.5773C80.0482 30.5773 79.6407 30.7432 79.3377 31.0751C79.0347 31.3997 78.8832 31.8722 78.8832 32.4926V35.7605H77.9093V32.406C77.9093 31.8145 77.7615 31.3636 77.4657 31.0534C77.1771 30.736 76.784 30.5773 76.2862 30.5773C75.774 30.5773 75.3665 30.7432 75.0635 31.0751C74.7605 31.3997 74.609 31.8722 74.609 32.4926V35.7605H73.6243V29.8307H74.609V30.6855C74.8038 30.3753 75.0635 30.1373 75.3881 29.9714C75.7199 29.8054 76.0842 29.7225 76.481 29.7225C76.9788 29.7225 77.4188 29.8343 77.8011 30.0579C78.1835 30.2816 78.4684 30.6098 78.656 31.0426C78.8219 30.6242 79.096 30.2996 79.4783 30.0688C79.8607 29.8379 80.2863 29.7225 80.7552 29.7225Z" fill="white"/>
<path d="M84.4047 32.7739C84.4047 32.168 84.5274 31.6378 84.7726 31.1833C85.0179 30.7216 85.3534 30.3645 85.779 30.112C86.2118 29.8596 86.6915 29.7333 87.2181 29.7333C87.7375 29.7333 88.1884 29.8451 88.5707 30.0688C88.9531 30.2924 89.238 30.5737 89.4256 30.9128V29.8307H90.4211V35.7605H89.4256V34.6567C89.2308 35.003 88.9386 35.2916 88.5491 35.5224C88.1668 35.746 87.7195 35.8579 87.2073 35.8579C86.6807 35.8579 86.2046 35.728 85.779 35.4683C85.3534 35.2086 85.0179 34.8443 84.7726 34.3754C84.5274 33.9065 84.4047 33.3727 84.4047 32.7739ZM89.4256 32.7848C89.4256 32.3375 89.3354 31.948 89.155 31.6161C88.9747 31.2843 88.7294 31.0318 88.4192 30.8587C88.1163 30.6783 87.7808 30.5881 87.4129 30.5881C87.045 30.5881 86.7096 30.6747 86.4066 30.8478C86.1036 31.021 85.8619 31.2735 85.6816 31.6053C85.5012 31.9371 85.4111 32.3267 85.4111 32.7739C85.4111 33.2284 85.5012 33.6252 85.6816 33.9642C85.8619 34.2961 86.1036 34.5521 86.4066 34.7325C86.7096 34.9056 87.045 34.9922 87.4129 34.9922C87.7808 34.9922 88.1163 34.9056 88.4192 34.7325C88.7294 34.5521 88.9747 34.2961 89.155 33.9642C89.3354 33.6252 89.4256 33.232 89.4256 32.7848Z" fill="white"/>
<path d="M92.5937 28.8677C92.4061 28.8677 92.2474 28.8027 92.1176 28.6729C91.9877 28.543 91.9228 28.3843 91.9228 28.1968C91.9228 28.0092 91.9877 27.8505 92.1176 27.7207C92.2474 27.5908 92.4061 27.5259 92.5937 27.5259C92.774 27.5259 92.9255 27.5908 93.0481 27.7207C93.178 27.8505 93.2429 28.0092 93.2429 28.1968C93.2429 28.3843 93.178 28.543 93.0481 28.6729C92.9255 28.8027 92.774 28.8677 92.5937 28.8677ZM93.0698 29.8307V35.7605H92.0851V29.8307H93.0698Z" fill="white"/>
<path d="M96.8472 35.8579C96.3928 35.8579 95.9852 35.7821 95.6245 35.6306C95.2638 35.4719 94.9789 35.2555 94.7697 34.9814C94.5605 34.7 94.445 34.379 94.4234 34.0183H95.4405C95.4694 34.3141 95.6065 34.5558 95.8517 34.7433C96.1042 34.9309 96.4325 35.0247 96.8364 35.0247C97.2115 35.0247 97.5073 34.9417 97.7237 34.7758C97.9401 34.6099 98.0483 34.4007 98.0483 34.1482C98.0483 33.8885 97.9329 33.6973 97.7021 33.5747C97.4712 33.4448 97.1142 33.3186 96.6308 33.1959C96.1908 33.0805 95.8301 32.9651 95.5488 32.8497C95.2746 32.727 95.0366 32.5503 94.8346 32.3195C94.6398 32.0814 94.5424 31.7712 94.5424 31.3889C94.5424 31.0859 94.6326 30.8082 94.8129 30.5557C94.9933 30.3032 95.2494 30.1048 95.5812 29.9605C95.9131 29.8091 96.2918 29.7333 96.7174 29.7333C97.3739 29.7333 97.9041 29.8992 98.308 30.2311C98.712 30.5629 98.9284 31.0174 98.9573 31.5945H97.9726C97.951 31.2843 97.8247 31.0354 97.5939 30.8478C97.3702 30.6603 97.0673 30.5665 96.6849 30.5665C96.3315 30.5665 96.0501 30.6423 95.8409 30.7937C95.6317 30.9452 95.5271 31.1436 95.5271 31.3889C95.5271 31.5837 95.5884 31.746 95.7111 31.8758C95.8409 31.9985 95.9996 32.0994 96.1872 32.1788C96.382 32.2509 96.6489 32.3339 96.9879 32.4277C97.4135 32.5431 97.7598 32.6585 98.0267 32.7739C98.2936 32.8821 98.5209 33.0481 98.7084 33.2717C98.9032 33.4953 99.0042 33.7875 99.0114 34.1482C99.0114 34.4728 98.9212 34.765 98.7409 35.0247C98.5605 35.2844 98.3044 35.4899 97.9726 35.6414C97.648 35.7857 97.2729 35.8579 96.8472 35.8579Z" fill="white"/>
<path d="M44.8164 49.1551H44.5947C44.0195 49.1551 43.5592 48.8674 43.214 48.2919C42.9509 47.832 42.8195 47.2317 42.8195 46.492C42.8195 44.8155 43.6331 42.7116 45.2604 40.1803C45.7371 39.342 45.9836 38.709 46.0001 38.2817C45.9836 38.1173 45.8604 38.0189 45.6301 37.9858C44.1016 37.9858 41.8497 40.1966 38.8746 44.6183C38.3157 45.6867 37.8884 46.221 37.5927 46.221H37.3952C37.1489 46.221 36.9432 46.0321 36.7788 45.6541L36.7539 45.5306C36.9349 43.0486 38.7183 39.0049 42.1044 33.3999C42.5647 32.7421 42.8769 32.2574 43.0413 31.945C41.2498 32.2904 39.1456 32.463 36.7295 32.463C34.5269 32.3972 30.3848 32.2327 24.3027 31.9698H22.1579C19.5936 31.9698 17.5636 32.2739 16.0679 32.8819C15.7062 33.1943 15.3035 33.5726 14.8597 34.0164L14.6871 34.0408C14.4571 33.975 14.3256 33.8437 14.2926 33.6465C14.5227 33.0217 15.5829 32.4874 17.4731 32.0438C18.7389 31.7312 20.4728 31.5751 22.6756 31.5751C24.0564 31.5751 28.3464 31.7312 35.5459 32.0438H36.7788C39.7208 32.0438 41.9483 31.8219 43.4605 31.3781C46.7315 26.3646 49.0657 23.825 50.4628 23.7594C50.9066 23.7594 51.1285 24.0469 51.1285 24.6222C51.1285 25.3454 50.6847 26.3896 49.7973 27.7536C48.7615 29.0192 47.6519 29.989 46.4686 30.6631L44.7427 31.4519C42.425 35.4465 40.9046 38.4131 40.1812 40.3529C39.4745 41.9965 39.006 43.0321 38.776 43.4594L38.8006 43.5087C41.8087 39.4322 44.307 37.3941 46.296 37.3941C47.0027 37.4762 47.3563 37.8133 47.3563 38.405C47.3563 39.2927 46.7068 40.7802 45.4084 42.8676C44.4714 44.4292 44.003 45.7113 44.003 46.7141C44.0195 46.9769 44.0525 47.2235 44.1016 47.4538C44.2167 48.144 44.4879 48.4894 44.9152 48.4894H45.1125C46.2137 48.4894 48.0795 46.648 50.7094 42.9663C51.2073 42.236 51.5919 41.6901 51.8638 41.3284C52.1844 40.6411 52.5588 40.0117 52.9414 39.4992C53.4491 38.8149 54.3449 39.1042 53.9711 39.8446C53.3716 41.086 52.7015 42.7998 52.3559 44.2949C52.1656 45.1059 52.0738 45.8465 52.1302 46.4035C52.1513 46.6786 52.2147 46.9043 52.3068 47.0665C52.3981 47.2286 52.5111 47.3345 52.6804 47.391C52.906 47.4685 53.1387 47.4544 53.4066 47.3415C53.6747 47.2358 53.9781 47.0243 54.2954 46.735C54.9371 46.1567 55.6636 45.247 56.4535 44.1678C57.9558 42.1156 59.3944 39.9434 59.9021 39.1676C59.9446 39.1042 59.9868 39.0406 60.0221 38.9772C60.2266 38.674 60.4875 38.547 60.7204 38.554C61.1013 38.5681 61.3974 38.9349 61.1858 39.3651C60.4875 40.839 59.6837 42.7362 59.3099 44.3796C59.1054 45.2611 59.0277 46.0792 59.1336 46.6998C59.2393 47.3204 59.5074 47.7435 60.0362 47.9482C60.4945 48.1244 61.0236 48.0821 61.5948 47.8562C62.1591 47.6378 62.7656 47.2358 63.3507 46.742C64.4647 45.8027 65.5082 44.5124 66.19 43.4601C66.3152 43.0631 66.4286 42.7617 66.4376 42.738L66.4383 42.7364C66.8496 41.564 67.4534 40.2906 68.0267 39.5133C68.5557 38.7938 69.4442 39.1535 69.0493 39.8941C68.3298 41.3821 67.6458 43.3498 67.2084 45.0073C66.9759 45.8888 66.8137 46.6859 66.7573 47.257C66.7291 47.546 66.7291 47.7787 66.7503 47.9269C66.7573 48.0046 66.7784 48.0539 66.7925 48.075C66.7925 48.0821 66.7925 48.0821 66.7925 48.0821C66.7925 48.0821 66.7855 48.0891 66.8278 48.061C66.87 48.0398 66.9334 47.9764 67.0111 47.8776C67.1593 47.6942 67.3427 47.391 67.5472 47.0102C67.9562 46.2555 68.4641 45.2048 69.0565 44.1326C69.7194 42.9269 70.4034 41.6855 71.017 40.7474C71.3202 40.282 71.6166 39.8871 71.8843 39.6048C72.1593 39.3228 72.4135 39.1251 72.7094 39.1465C72.8294 39.1535 72.9422 39.2099 73.0199 39.2946C73.0977 39.3724 73.1541 39.471 73.2031 39.5837C73.3023 39.8166 73.3513 40.1057 73.3936 40.4513C73.464 41.1355 73.464 42.0241 73.4432 42.9125C73.4291 43.8011 73.3936 44.6969 73.4077 45.3668C73.415 45.6983 73.4358 45.9803 73.464 46.171C73.4781 46.2414 73.4922 46.2837 73.5136 46.326C73.5277 46.3121 73.535 46.3051 73.5559 46.2767C73.6545 46.171 73.7886 45.9803 73.9577 45.7267C74.3038 45.2116 74.7901 44.4289 75.5025 43.385C76.2289 42.3272 77.0118 41.1846 77.7241 40.3172C78.0764 39.8871 78.4151 39.5203 78.7256 39.2735C78.9584 39.0831 79.177 38.9417 79.4025 38.9067C79.4729 38.8995 79.5507 38.8995 79.6285 38.9208C79.7761 38.949 79.9243 39.0479 80.0021 39.1958C80.0867 39.351 80.1148 39.5344 80.1081 39.7671C80.1007 40.2325 79.9666 40.9237 79.6848 41.9957C79.3394 43.3005 78.8665 44.6898 78.6619 45.8183C78.5633 46.3825 78.5351 46.8761 78.6056 47.2499C78.676 47.6237 78.8383 47.8562 79.1415 47.9973C79.5158 48.1598 79.9599 48.0891 80.4603 47.8423C80.9613 47.5883 81.5041 47.1511 82.0265 46.6293C83.0838 45.5924 84.0785 44.2174 84.6641 43.3145L84.6719 43.3018C84.5959 43.5767 84.4865 43.9827 84.393 44.3788C83.817 45.1863 83.0776 46.1258 82.2942 46.9043C81.7509 47.4404 81.1868 47.8987 80.6294 48.1807C78.8451 49.0695 77.0118 48.0257 77.315 45.5715C77.6182 43.1523 79.6566 38.9983 78.8383 39.6755C78.5915 39.8941 78.3165 40.1974 78.02 40.5569C77.3223 41.4032 76.5395 42.5387 75.8198 43.6036C75.1147 44.6335 74.6211 45.4163 74.2756 45.9381C74.0992 46.1992 73.69 46.9397 73.2177 46.9254C72.5685 46.9043 71.9266 46.1778 72.0258 43.392C72.103 41.763 72.4203 39.5273 71.8916 40.1691C71.722 40.3879 71.5321 40.6556 71.3343 40.959C70.7352 41.8759 70.0577 43.11 69.3879 44.316C68.8027 45.3738 68.3019 46.4248 67.8856 47.1936C67.6742 47.5815 67.4838 47.8917 67.3072 48.1173C67.0605 48.4207 66.7855 48.6111 66.3976 48.5123C65.6773 48.2934 65.5126 46.888 65.8457 45.0079C65.8525 44.8666 65.8747 44.7057 65.9071 44.5362C65.2621 45.3998 64.4563 46.3073 63.5977 47.0311C62.9912 47.546 62.3565 47.9694 61.7289 48.2089C60.8474 48.5616 59.6694 48.6252 58.7879 47.9341C57.6385 47.0243 57.6735 45.3104 58.0685 43.5754C58.2096 42.9759 58.4139 42.3413 58.6539 41.7136C58.0826 42.5387 57.4267 43.4768 56.7637 44.3937C55.9669 45.4797 55.2334 46.4035 54.5562 47.0172C53.8581 47.6378 53.0048 48.0891 52.1372 47.7153C50.8326 47.1581 50.6775 45.2329 51.1639 43.2791C51.2029 43.1241 51.2459 42.9694 51.2925 42.815C48.3804 47.0412 46.2218 49.1551 44.8164 49.1551ZM108.238 44.558C108.238 44.558 108.216 44.6773 108.152 44.8776C108.067 45.2252 107.907 45.5764 107.711 45.8995L107.709 45.9024C107.607 46.1067 107.479 46.2958 107.336 46.4693C106.392 47.7803 104.505 49.3136 100.814 49.4873L100.815 49.4869C99.3921 49.5767 98.2864 49.1927 97.5002 48.7425C97.4551 48.7148 97.4077 48.6866 97.357 48.6576C97.2646 48.6012 97.1778 48.5442 97.0955 48.4874C95.4166 47.259 95.899 44.6242 96.2699 43.3223C96.9298 41.2353 97.8389 39.1841 97.2454 39.6755C96.9986 39.8941 96.7241 40.1974 96.4277 40.5569C95.7294 41.4032 94.9466 42.5387 94.2274 43.6036C93.5218 44.6335 93.0282 45.4163 92.6827 45.9381C92.5063 46.1992 92.0971 46.9397 91.6248 46.9254C90.9756 46.9043 90.3342 46.1778 90.4329 43.392C90.5106 41.763 90.8279 39.5273 90.2987 40.1691C90.1297 40.3879 89.9392 40.6556 89.7419 40.959C89.1423 41.8759 88.4654 43.11 87.7953 44.316C87.2097 45.3738 86.7087 46.4248 86.2928 47.1936C86.0815 47.5815 85.891 47.8917 85.7146 48.1173C85.4677 48.4207 85.1927 48.6111 84.805 48.5123C83.9235 48.2443 83.8739 46.1992 84.5508 43.6813C84.6122 43.4532 84.6849 43.2126 84.7672 42.9659L84.7678 42.9641C85.178 41.7317 85.8233 40.3412 86.4343 39.5133C86.9629 38.7938 87.8517 39.1535 87.4566 39.8941C86.7375 41.3821 86.0533 43.3498 85.6159 45.0073C85.3832 45.8888 85.2209 46.6859 85.1645 47.257C85.1363 47.546 85.1363 47.7787 85.1572 47.9269C85.1645 48.0046 85.1854 48.0539 85.2 48.075C85.2 48.0821 85.2 48.0821 85.2 48.0821C85.2 48.0821 85.1927 48.0891 85.235 48.061C85.2772 48.0398 85.3409 47.9764 85.4187 47.8776C85.5663 47.6942 85.7501 47.391 85.9547 47.0102C86.3633 46.2555 86.871 45.2048 87.4639 44.1326C88.1267 42.9269 88.8109 41.6855 89.4241 40.7474C89.7278 40.282 90.0237 39.8871 90.292 39.6048C90.567 39.3228 90.8206 39.1251 91.1171 39.1465C91.2371 39.1535 91.3498 39.2099 91.4276 39.2946C91.5048 39.3724 91.5612 39.471 91.6107 39.5837C91.7094 39.8166 91.759 40.1057 91.8012 40.4513C91.8717 41.1355 91.8717 42.0241 91.8503 42.9125C91.8362 43.8011 91.8012 44.6969 91.8153 45.3668C91.8221 45.6983 91.8435 45.9803 91.8717 46.171C91.8852 46.2414 91.8999 46.2837 91.9207 46.326C91.9348 46.3121 91.9421 46.3051 91.963 46.2767C92.0616 46.171 92.1963 45.9803 92.3654 45.7267C92.7109 45.2116 93.1972 44.4289 93.9096 43.385C94.636 42.3272 95.4189 41.1846 96.1312 40.3172C96.484 39.8871 96.8222 39.5203 97.1327 39.2735C97.3655 39.0831 97.5841 38.9417 97.8101 38.9067C97.8806 38.8995 97.9578 38.8995 98.0356 38.9208C98.1838 38.949 98.332 39.0479 98.4092 39.1958C98.4938 39.351 98.5219 39.5344 98.5152 39.7671C98.5078 40.2325 98.3743 40.9237 98.0919 41.9957C97.8659 42.8498 97.5853 43.7401 97.361 44.5698C97.1648 45.3912 96.8932 47.2233 98.0581 48.1351C100.065 49.3867 102.561 48.7712 104.206 48.0984L104.208 48.0975L104.211 48.0962C104.774 47.8547 105.087 47.6484 105.087 47.6484C105.145 47.6266 105.201 47.6041 105.257 47.5808C108.054 45.9392 107.894 43.5975 107.869 43.3542L107.868 43.3445V43.3427L107.867 43.3359L107.867 43.3337C107.842 43.1246 107.809 42.9949 107.804 42.9779L107.804 42.9762C107.636 42.4108 107.303 41.7746 106.662 41.2167L106.934 41.7033C107.35 42.3254 107.683 43.0057 107.558 43.9658C107.448 44.8217 107.045 45.568 106.473 46.16V46.1598L106.472 46.1615C106.27 46.3702 106.047 46.56 105.809 46.7284L105.808 46.7291C105.803 46.733 105.776 46.7528 105.727 46.7854C105.599 46.8717 105.469 46.9518 105.334 47.026C103.676 48.0306 101.998 48.1043 101.661 48.1085L101.521 48.1307L101.6 48.1085L102.102 47.9542C102.703 47.7585 103.68 47.4049 104.6 46.914L104.583 46.8878C104.712 46.8343 104.839 46.7751 104.964 46.7106C105.473 46.4109 105.945 46.068 106.3 45.6853C107.02 44.8829 107.386 43.8509 107.055 42.7922C106.796 41.9657 105.815 40.5119 104.902 39.7966L104.699 39.6491L104.702 39.6502L104.712 39.6541L104.728 39.6605L104.738 39.6645L104.75 39.6695C104.797 39.6889 104.841 39.7081 104.883 39.7272C105.693 40.0892 108.878 41.7095 108.237 44.5591L108.238 44.558ZM45.2851 30.7863C48.326 29.3069 50.1422 27.3098 50.734 24.795L50.7587 24.6471C50.7587 24.384 50.6354 24.2526 50.389 24.2526C49.8957 24.2526 49.0985 25.0746 47.9974 26.718C46.9783 28.0002 46.0495 29.3562 45.2111 30.7863H45.2851Z" fill="white"/>
<path d="M104.581 28.3372C104.898 30.9586 105.502 30.9009 106.452 32.0331C107.51 33.2954 108.141 34.8895 106.617 36.0669C106.825 35.5665 106.939 35.0943 106.97 34.6549C106.94 33.4614 106.155 32.439 105.728 31.9688C105.639 31.8845 105.548 31.7925 105.457 31.693L105.456 31.6925L105.457 31.6927C104.741 30.9073 104.058 29.6738 104.581 28.3372ZM101.855 38.201C101.855 38.201 101.731 38.4487 101.678 38.8635C101.646 39.0703 101.641 39.2786 101.659 39.484C101.674 39.8488 101.752 40.2642 101.974 40.6393C102.231 41.1979 102.674 41.8114 103.414 42.436C103.414 42.436 104.822 43.769 104.589 44.6643C104.589 44.6643 104.664 44.475 104.689 44.1849C104.755 43.2939 103.882 42.287 103.8 42.1945L103.797 42.1912L103.797 42.1908L103.795 42.1886L103.794 42.1877C103.692 42.0734 103.579 41.9556 103.456 41.8343C103.343 41.7232 103.222 41.6093 103.09 41.4929C101.956 40.3457 101.919 39.3564 102.008 38.8451V38.8454L102.009 38.8401L102.012 38.822C102.22 37.6755 103.138 36.9378 103.138 36.9378C102.716 37.4619 102.459 38.3395 102.449 38.374C102.292 39.2535 102.618 39.8975 102.618 39.8975C102.816 40.3503 103.213 40.8868 103.939 41.5968C105.453 43.0768 105.943 43.946 105.067 45.5249C106.64 44.3317 105.332 42.6652 104.574 41.6877C103.948 40.8804 102.569 39.8433 102.869 38.3912L102.885 38.3269C102.893 38.2675 102.918 38.1858 102.966 38.077V38.0766C103.197 37.4855 103.673 36.9427 104.149 36.5118L104.153 36.5089C104.782 35.9302 105.394 35.5731 105.457 35.5367V35.5365L105.459 35.5357L105.461 35.5348L105.461 35.5346L105.462 35.5343L105.462 35.5339V35.5337L105.039 35.6779L105.115 35.6283L105.462 35.5337C105.462 35.5337 102.618 36.1562 101.855 38.2019V38.201ZM107.842 31.7161C107.826 31.7071 107.81 31.6983 107.793 31.6899C107.793 31.6899 107.867 31.7482 107.972 31.8614C108.258 32.2227 108.873 33.2558 108.309 34.9468C108.262 35.041 108.21 35.137 108.152 35.2345C108.178 35.2143 108.204 35.1934 108.229 35.1718C108.751 34.7169 108.923 34.0008 108.834 33.2748C108.738 32.4919 108.393 32.0139 107.842 31.7161ZM104.253 37.8211C105.415 37.7261 108.964 35.6722 107.628 32.878C107.073 31.717 106.168 31.4629 105.528 30.4047C104.744 29.1071 104.836 28.3029 105.301 26.6117C104.641 27.2475 104.023 28.6686 104.149 29.8481C104.506 33.1655 109.511 33.5238 104.486 37.5938L104.253 37.8211Z" fill="white"/>
<path fill-rule="evenodd" clip-rule="evenodd" d="M77.4633 8.38683C78.2737 8.5178 78.3469 9.01714 78.5115 9.39795C78.6062 9.22606 78.6682 8.51076 79.5936 8.37471C79.1529 8.28116 78.8733 8.14071 78.6507 7.73234C78.5628 7.57184 78.5696 7.45517 78.5132 7.32482C78.3954 7.67379 78.3999 7.77726 78.1627 8.01013C78.0623 8.10876 78.0297 8.15745 77.8735 8.23844C77.8234 8.26442 77.7484 8.2957 77.6904 8.31441L77.4633 8.38683Z" fill="white"/>
<path fill-rule="evenodd" clip-rule="evenodd" d="M76.225 7.16037C76.7159 7.2502 76.7711 7.61721 76.8686 7.78955C76.9847 7.37194 77.1301 7.27929 77.5229 7.14126C77.1723 7.02984 76.9351 6.88608 76.8748 6.50019C76.8697 6.50763 76.8646 6.51028 76.8624 6.52307C76.8607 6.53542 76.8534 6.53981 76.8505 6.54528C76.748 6.76631 76.7305 6.90411 76.4543 7.04968C76.416 7.06992 76.3946 7.07651 76.3557 7.09302C76.3416 7.09916 76.3033 7.11506 76.2909 7.1212C76.2233 7.15575 76.2633 7.13089 76.225 7.16037Z" fill="white"/>
<path fill-rule="evenodd" clip-rule="evenodd" d="M73.4551 17.1287C75.1447 18.6982 76.5559 16.9878 77.6194 18.5249C77.9761 19.0402 79.1596 21.1662 79.1669 21.6244C79.1782 22.3504 77.6937 23.2092 77.6729 23.7691C77.8121 23.8748 77.8155 23.8695 78.0071 23.825C78.6389 23.6783 79.7536 23.1201 80.3048 22.8205C80.6317 22.6432 82.5653 21.6442 82.5225 21.135C82.2193 20.9617 81.3491 21.2206 80.9529 21.2761C80.3798 21.3564 79.9492 21.4614 79.5857 20.8638L78.3064 18.5354C77.1347 16.6574 79.6967 16.3076 79.2582 13.9539C79.0728 12.9596 78.4067 12.1703 77.7366 11.4953C77.2113 10.9667 76.8112 10.5883 76.3181 10.0133C76.0577 9.70972 76.0492 9.58027 75.8615 9.61155C75.8621 9.99833 77.7208 11.8397 78.0466 12.2449C80.6204 15.4501 76.8157 17.7923 74.5732 17.3451C74.4272 17.3161 74.2001 17.2203 73.973 17.082C73.4889 16.774 73.1423 16.249 72.9078 15.7627C72.878 15.6887 72.8492 15.6183 72.8086 15.5441C72.7072 15.3087 72.6334 15.0934 72.5832 14.9301C72.4339 14.4092 72.2687 13.6854 72.1036 13.0736L72.0472 13.8258C72.1121 14.1186 72.1662 14.4048 72.2276 14.6908C72.2755 14.9162 72.3442 15.1247 72.4079 15.3393C72.5928 15.8864 72.9185 16.6085 73.4551 17.1287Z" fill="white"/>
<path fill-rule="evenodd" clip-rule="evenodd" d="M72.0618 11.935V11.9352C72.0703 11.9947 72.0528 12.0557 72.0258 12.1406C71.9012 12.7423 71.4058 14.4641 69.8008 14.5217C68.8481 14.5647 67.519 13.9731 66.8363 13.1756C65.5766 11.7028 66.4821 10.5392 67.4118 9.40284L67.4353 9.44472C67.5589 9.65584 68.1797 10.6053 69.4488 10.84C69.5081 10.8506 69.5712 10.8607 69.6401 10.871C70.4824 10.9954 71.3201 11.0749 71.9463 11.7411C72.0196 11.8192 72.0534 11.8767 72.0618 11.935Z" fill="white"/>
<path fill-rule="evenodd" clip-rule="evenodd" d="M72.0618 11.935V11.9352C72.0703 11.9947 72.0528 12.0557 72.0258 12.1406C71.9012 12.7423 71.4058 14.4641 69.8008 14.5217C68.8481 14.5647 67.519 13.9731 66.8363 13.1756C65.5766 11.7028 66.4821 10.5392 67.4118 9.40284L67.4353 9.44472C67.5589 9.65584 68.1797 10.6053 69.4488 10.84C69.5081 10.8506 69.5712 10.8607 69.6401 10.871C70.4824 10.9954 71.3201 11.0749 71.9463 11.7411C72.0196 11.8192 72.0534 11.8767 72.0618 11.935Z" fill="white"/>
<mask id="mask0_264_3648" style="mask-type:luminance" maskUnits="userSpaceOnUse" x="66" y="9" width="7" height="6">
<path d="M72.0618 11.935V11.9352C72.0703 11.9947 72.0528 12.0557 72.0258 12.1406C71.9012 12.7423 71.4058 14.4641 69.8008 14.5217C68.8481 14.5647 67.519 13.9731 66.8363 13.1756C65.5766 11.7028 66.4821 10.5392 67.4118 9.40284L67.4353 9.44472C67.5589 9.65584 68.1797 10.6053 69.4488 10.84C69.5081 10.8506 69.5712 10.8607 69.6401 10.871C70.4824 10.9954 71.3201 11.0749 71.9463 11.7411C72.0196 11.8192 72.0534 11.8767 72.0618 11.935Z" fill="white"/>
</mask>
<g mask="url(#mask0_264_3648)">
<path fill-rule="evenodd" clip-rule="evenodd" d="M71.3389 11.2866C71.3389 11.2866 71.3716 14.6416 67.9742 14.0455C64.5769 13.4493 70.0451 16.3896 70.0451 16.3896L73.1587 12.6581L72.6881 10.666L71.3389 11.2866Z" fill="white"/>
<path fill-rule="evenodd" clip-rule="evenodd" d="M67.6671 9.77283C67.6671 9.77283 65.7461 11.5686 67.2043 13.125C67.2043 13.125 67.1909 11.2831 68.357 10.3989C69.5231 9.51482 69.5231 9.51482 69.5231 9.51482L67.6671 9.77283Z" fill="white"/>
</g>
<path fill-rule="evenodd" clip-rule="evenodd" d="M71.3821 14.5493C69.693 16.1185 68.2816 14.4082 67.2181 15.9452C66.8617 16.4606 65.6779 18.5866 65.6707 19.0447C65.6592 19.771 67.1439 20.6296 67.165 21.1894C67.0254 21.2951 67.0219 21.29 66.8304 21.2453C66.1986 21.0987 65.0841 20.5404 64.5327 20.2408C64.2062 20.0636 62.2722 19.0645 62.3152 18.5553C62.6181 18.3821 63.4885 18.6409 63.8846 18.6965C64.4578 18.7768 64.8882 18.8818 65.2515 18.2839L66.5312 15.9558C67.7026 14.078 65.1409 13.7279 65.5795 11.3743C65.7647 10.3799 66.4306 9.59063 67.1012 8.91569C67.6262 8.38711 68.0265 8.00866 68.5196 7.43364C68.7798 7.13026 68.7882 7.00058 68.9762 7.03186C68.9751 7.41865 67.1166 9.25998 66.791 9.6653C64.217 12.8704 68.0218 15.2126 70.2641 14.7655C70.4104 14.7364 70.6377 14.6406 70.8642 14.5024C71.3489 14.1944 71.6949 13.6694 71.9299 13.1831C71.9598 13.1091 71.9886 13.0386 72.0291 12.9644C72.13 12.7293 72.2044 12.5138 72.2546 12.3504C72.5448 11.3349 72.8965 9.54706 73.1924 9.3258C73.2825 9.39383 73.3276 9.31194 73.1726 9.7597C73.1106 9.93808 73.074 10.0647 73.0272 10.2434C72.9455 10.558 72.8779 10.86 72.8091 11.1627C72.7359 11.485 72.6773 11.7981 72.6102 12.1111C72.5617 12.3368 72.4935 12.5453 72.4298 12.7597C72.245 13.3068 71.9192 14.0288 71.3821 14.5493Z" fill="white"/>
<path fill-rule="evenodd" clip-rule="evenodd" d="M77.3611 11.8648C77.4158 11.8895 77.4581 11.9368 77.515 12.0055C77.9563 12.4333 79.1437 13.7749 78.331 15.1603C77.8565 15.9873 76.6442 16.7918 75.605 16.9399C73.6866 17.2131 73.1901 15.8249 72.7296 14.4307L72.7775 14.4333C73.0221 14.4421 74.1566 14.4278 75.0352 13.4825C75.0758 13.4382 75.1181 13.3902 75.1637 13.3377C75.7205 12.6935 76.2373 12.0291 77.1351 11.858C77.2405 11.838 77.307 11.8404 77.3611 11.8648Z" fill="white"/>
<path fill-rule="evenodd" clip-rule="evenodd" d="M77.3611 11.8648C77.4158 11.8895 77.4581 11.9368 77.515 12.0055C77.9563 12.4333 79.1437 13.7749 78.331 15.1603C77.8565 15.9873 76.6442 16.7918 75.605 16.9399C73.6866 17.2131 73.1901 15.8249 72.7296 14.4307L72.7775 14.4333C73.0221 14.4421 74.1566 14.4278 75.0352 13.4825C75.0758 13.4382 75.1181 13.3902 75.1637 13.3377C75.7205 12.6935 76.2373 12.0291 77.1351 11.858C77.2405 11.838 77.307 11.8404 77.3611 11.8648Z" fill="white"/>
<mask id="mask1_264_3648" style="mask-type:luminance" maskUnits="userSpaceOnUse" x="72" y="11" width="7" height="6">
<path d="M77.3611 11.8648C77.4158 11.8895 77.4581 11.9368 77.515 12.0055C77.9563 12.4333 79.1437 13.7749 78.331 15.1603C77.8565 15.9873 76.6442 16.7918 75.605 16.9399C73.6866 17.2131 73.1901 15.8249 72.7296 14.4307L72.7775 14.4333C73.0221 14.4421 74.1566 14.4278 75.0352 13.4825C75.0758 13.4382 75.1181 13.3902 75.1637 13.3377C75.7205 12.6935 76.2373 12.0291 77.1351 11.858C77.2405 11.838 77.307 11.8404 77.3611 11.8648Z" fill="white"/>
</mask>
<g mask="url(#mask1_264_3648)">
<path fill-rule="evenodd" clip-rule="evenodd" d="M76.4262 12.1273C76.4262 12.1273 79.2751 13.8995 76.9497 16.4471C74.6238 18.9946 80.0387 15.9568 80.0387 15.9568L78.5599 11.3275L76.6262 10.6556L76.4262 12.1273Z" fill="white"/>
<path fill-rule="evenodd" clip-rule="evenodd" d="M73.1788 14.4146C73.1788 14.4146 73.6641 16.9992 75.7595 16.6033C75.7595 16.6033 74.1978 15.6265 74.0772 14.168C73.9566 12.7097 73.9566 12.7097 73.9566 12.7097L73.1788 14.4146Z" fill="white"/>
</g>
</svg>
