<?xml version="1.0" encoding="UTF-8" standalone="no"?>
<svg
   xmlns:dc="http://purl.org/dc/elements/1.1/"
   xmlns:cc="http://creativecommons.org/ns#"
   xmlns:rdf="http://www.w3.org/1999/02/22-rdf-syntax-ns#"
   xmlns:svg="http://www.w3.org/2000/svg"
   xmlns="http://www.w3.org/2000/svg"
   viewBox="0 0 223.72 101.73333"
   height="101.73333"
   width="223.72"
   xml:space="preserve"
   id="svg2"
   version="1.1"><metadata
     id="metadata8"><rdf:RDF><cc:Work
         rdf:about=""><dc:format>image/svg+xml</dc:format><dc:type
           rdf:resource="http://purl.org/dc/dcmitype/StillImage" /></cc:Work></rdf:RDF></metadata><defs
     id="defs6"><clipPath
       id="clipPath40"
       clipPathUnits="userSpaceOnUse"><path
         style="clip-rule:evenodd"
         id="path38"
         d="m 1025.04,666.543 v -0.004 c 0.15,-1.055 -0.16,-2.137 -0.64,-3.644 -2.21,-10.676 -11,-41.227 -39.478,-42.25 -16.906,-0.762 -40.488,9.734 -52.602,23.886 -22.351,26.133 -6.285,46.778 10.211,66.942 l 0.418,-0.743 c 2.192,-3.746 13.207,-20.593 35.727,-24.757 1.051,-0.188 2.172,-0.368 3.394,-0.551 14.946,-2.207 29.81,-3.617 40.92,-15.438 1.3,-1.386 1.9,-2.406 2.05,-3.441 z" /></clipPath><clipPath
       id="clipPath58"
       clipPathUnits="userSpaceOnUse"><path
         style="clip-rule:evenodd"
         id="path56"
         d="m 1119.07,667.793 v 0 c 0.97,-0.438 1.72,-1.277 2.73,-2.496 7.83,-7.59 28.9,-31.395 14.48,-55.977 -8.42,-14.675 -29.93,-28.949 -48.37,-31.578 -34.04,-4.847 -42.85,19.785 -51.02,44.524 l 0.85,-0.047 c 4.34,-0.156 24.47,0.097 40.06,16.871 0.72,0.785 1.47,1.637 2.28,2.57 9.88,11.43 19.05,23.219 34.98,26.254 1.87,0.356 3.05,0.313 4.01,-0.121 z" /></clipPath></defs><g
     transform="matrix(1.3333333,0,0,-1.3333333,0,101.73333)"
     id="g10"><g
       transform="scale(0.1)"
       id="g12"><g
         transform="scale(10)"
         id="g14"><text
           id="text18"
           style="font-variant:normal;font-weight:normal;font-size:19.20000076px;font-family:Poppins;-inkscape-font-specification:Poppins-Regular;writing-mode:lr-tb;fill:#72b6e5;fill-opacity:1;fill-rule:nonzero;stroke:none"
           transform="matrix(1,0,0,-1,66.6168,26.1797)"><tspan
             id="tspan16"
             y="0"
             x="0 12.288 32.063999 37.190399 56.9664 69.945602 74.668251">um mais</tspan></text>
</g><path
         id="path20"
         style="fill:#72b6e5;fill-opacity:1;fill-rule:nonzero;stroke:none"
         d="m 541.605,6.12109 h -3.933 c -10.207,0 -18.375,5.10551 -24.5,15.31641 -4.668,8.1602 -7,18.8125 -7,31.9375 0,29.7461 14.437,67.078 43.312,111.992 8.457,14.875 12.832,26.106 13.125,33.688 -0.293,2.918 -2.48,4.664 -6.566,5.25 -27.121,0 -67.078,-39.227 -119.867,-117.6839 -9.918,-18.957 -17.5,-28.4375 -22.746,-28.4375 h -3.504 c -4.371,0 -8.02,3.3516 -10.938,10.0586 l -0.441,2.1914 c 3.211,44.0394 34.855,115.7894 94.937,215.2424 8.168,11.672 13.707,20.273 16.625,25.816 -31.789,-6.129 -69.125,-9.191 -111.996,-9.191 -39.082,1.168 -112.578,4.086 -220.496,8.75 H 139.559 C 94.0586,311.051 58.0391,305.656 31.5,294.867 25.082,289.324 17.9375,282.613 10.0625,274.738 L 7,274.305 c -4.08203,1.168 -6.414062,3.496 -7,6.996 4.08203,11.086 22.8945,20.566 56.4336,28.437 22.4609,5.547 53.2264,8.317 92.3124,8.317 24.5,0 100.621,-2.77 228.367,-8.317 h 21.875 c 52.203,0 91.727,3.938 118.559,11.813 58.039,88.957 99.457,134.019 124.246,135.183 7.875,0 11.812,-5.101 11.812,-15.308 0,-12.832 -7.875,-31.36 -23.621,-55.563 -18.379,-22.457 -38.066,-39.664 -59.062,-51.625 L 540.297,320.242 C 499.172,249.363 472.195,196.723 459.359,162.305 446.82,133.141 438.508,114.766 434.426,107.184 l 0.437,-0.875 c 53.375,72.332 97.703,108.496 132.996,108.496 12.539,-1.457 18.813,-7.438 18.813,-17.938 0,-15.75 -11.524,-42.144 -34.563,-79.183 -16.625,-27.7074 -24.937,-50.4574 -24.937,-68.2504 0.293,-4.6641 0.879,-9.0391 1.75,-13.125 2.043,-12.2461 6.855,-18.375 14.437,-18.375 h 3.5 c 19.539,0 52.645,32.6719 99.309,98.0004 8.836,12.957 15.66,22.644 20.484,29.062 5.688,12.195 12.332,23.363 19.121,32.457 9.008,12.141 24.903,7.008 18.27,-6.129 -10.637,-22.027 -22.527,-52.437 -28.66,-78.9646 -3.375,-14.3906 -5.004,-27.5313 -4.004,-37.4141 0.375,-4.8828 1.5,-8.8867 3.133,-11.7656 1.621,-2.875 3.625,-4.7539 6.629,-5.7578 4.004,-1.375 8.132,-1.125 12.886,0.8789 4.758,1.875 10.141,5.6289 15.77,10.7617 11.387,10.2617 24.277,26.4023 38.293,45.5508 26.656,36.4137 52.183,74.9567 61.191,88.7227 0.754,1.125 1.504,2.254 2.129,3.379 3.629,5.379 8.258,7.633 12.391,7.508 6.758,-0.25 12.012,-6.758 8.258,-14.391 -12.391,-26.152 -26.653,-59.816 -33.286,-88.9765 -3.628,-15.6407 -5.007,-30.1563 -3.128,-41.168 1.875,-11.0117 6.632,-18.5195 16.015,-22.1523 8.133,-3.125 17.52,-2.375 27.656,1.6328 10.012,3.875 20.774,11.0078 31.157,19.7695 19.765,16.668 38.281,39.5625 50.379,58.2345 2.222,7.043 4.234,12.391 4.394,12.812 l 0.012,0.028 c 7.297,20.804 18.012,43.398 28.183,57.191 9.387,12.766 25.153,6.383 18.145,-6.758 -12.766,-26.402 -24.902,-61.316 -32.664,-90.7262 -4.125,-15.6407 -7.004,-29.7852 -8.004,-39.918 -0.5,-5.1289 -0.5,-9.2578 -0.125,-11.8867 0.125,-1.3789 0.5,-2.2539 0.75,-2.6289 0,-0.125 0,-0.125 0,-0.125 0,0 -0.125,-0.125 0.625,0.375 0.75,0.375 1.875,1.5 3.254,3.2539 2.629,3.2539 5.883,8.6328 9.512,15.3906 7.257,13.3906 16.269,32.0351 26.781,51.0586 11.762,21.3947 23.898,43.4217 34.785,60.0667 5.38,8.258 10.64,15.265 15.39,20.273 4.88,5.004 9.39,8.512 14.64,8.133 2.13,-0.125 4.13,-1.125 5.51,-2.629 1.38,-1.379 2.38,-3.129 3.25,-5.129 1.76,-4.133 2.63,-9.262 3.38,-15.394 1.25,-12.141 1.25,-27.907 0.88,-43.672 -0.25,-15.766 -0.88,-31.6604 -0.63,-43.5472 0.13,-5.8828 0.5,-10.8867 1,-14.2695 0.25,-1.25 0.5,-2 0.88,-2.75 0.25,0.2461 0.38,0.3711 0.75,0.875 1.75,1.875 4.13,5.2578 7.13,9.7578 6.14,9.1407 14.77,23.0274 27.41,41.5509 12.89,18.769 26.78,39.043 39.42,54.434 6.25,7.632 12.26,14.14 17.77,18.519 4.13,3.379 8.01,5.887 12.01,6.508 1.25,0.129 2.63,0.129 4.01,-0.25 2.62,-0.5 5.25,-2.254 6.63,-4.879 1.5,-2.754 2,-6.008 1.88,-10.137 -0.13,-8.258 -2.51,-20.523 -7.51,-39.543 -6.13,-23.152 -14.52,-47.8044 -18.15,-67.8279 -1.75,-10.0117 -2.25,-18.7695 -1,-25.4023 1.25,-6.6328 4.13,-10.7578 9.51,-13.2617 6.64,-2.8828 14.52,-1.6289 23.4,2.75 8.89,4.5078 18.52,12.2656 27.79,21.5234 18.76,18.3984 36.41,42.7969 46.8,58.8165 l 0.14,0.226 c -1.35,-4.878 -3.29,-12.0816 -4.95,-19.1089 -10.22,-14.3281 -23.34,-31 -37.24,-44.8125 -9.64,-9.5117 -19.65,-17.6445 -29.54,-22.6484 -31.66,-15.76957 -64.19,2.75 -58.81,46.2968 5.38,42.926 41.55,116.633 27.03,104.617 -4.38,-3.879 -9.26,-9.261 -14.52,-15.64 -12.38,-15.016 -26.27,-35.164 -39.04,-54.059 -12.51,-18.2734 -21.27,-32.1641 -27.4,-41.4219 -3.13,-4.6328 -10.39,-17.7734 -18.77,-17.5195 -11.52,0.375 -22.91,13.2656 -21.15,62.6954 1.37,28.906 7,68.574 -2.38,57.187 -3.01,-3.882 -6.38,-8.632 -9.89,-14.015 -10.63,-16.27 -22.65,-38.168 -34.536,-59.5666 -10.383,-18.7696 -19.27,-37.418 -26.656,-51.0586 -3.75,-6.8828 -7.129,-12.3867 -10.262,-16.3906 -4.379,-5.3829 -9.258,-8.7618 -16.141,-7.0079 -12.781,3.8829 -15.703,28.8204 -9.793,62.1797 0.121,2.5078 0.516,5.3633 1.09,8.3711 C 904.387,72.7539 890.09,56.6523 874.855,43.8086 864.094,34.6719 852.832,27.1602 841.695,22.9102 c -15.64,-6.2579 -36.543,-7.3868 -52.183,4.875 -20.395,16.1445 -19.774,46.5546 -12.766,77.3398 2.504,10.637 6.129,21.898 10.387,33.035 C 776.996,123.52 765.359,106.875 753.594,90.6055 739.457,71.3359 726.441,54.9453 714.426,44.0547 702.039,33.043 686.898,25.0352 671.504,31.668 c -23.149,9.8867 -25.902,44.0468 -17.27,78.715 0.692,2.75 1.454,5.496 2.282,8.234 C 604.844,43.6289 566.543,6.12109 541.605,6.12109 Z M 1666.94,87.6914 c 0,0 -0.39,-2.1172 -1.52,-5.6719 -1.51,-6.1679 -4.36,-12.3984 -7.83,-18.1328 l -0.03,-0.0508 c -1.82,-3.625 -4.09,-6.9804 -6.62,-10.0586 C 1634.18,30.5156 1600.7,3.30859 1535.21,0.226563 l 0.01,0.007812 c -25.24,-1.593755 -44.86,5.218755 -58.81,13.207025 -0.8,0.4922 -1.64,0.9922 -2.54,1.5078 -1.64,1 -3.18,2.0117 -4.64,3.0196 -29.79,21.7968 -21.23,68.5468 -14.65,91.6482 11.71,37.031 27.84,73.426 17.31,64.707 -4.38,-3.879 -9.25,-9.261 -14.51,-15.64 -12.39,-15.016 -26.28,-35.164 -39.04,-54.059 -12.52,-18.2734 -21.28,-32.1641 -27.41,-41.4219 -3.13,-4.6328 -10.39,-17.7734 -18.77,-17.5195 -11.52,0.375 -22.9,13.2656 -21.15,62.6954 1.38,28.906 7.01,68.574 -2.38,57.187 -3,-3.882 -6.38,-8.632 -9.88,-14.015 -10.64,-16.27 -22.65,-38.168 -34.54,-59.5666 -10.39,-18.7696 -19.28,-37.418 -26.66,-51.0586 -3.75,-6.8828 -7.13,-12.3867 -10.26,-16.3906 -4.38,-5.3829 -9.26,-8.7618 -16.14,-7.0079 -15.64,4.754 -16.52,41.043 -4.51,85.7187 1.09,4.047 2.38,8.317 3.84,12.695 l 0.01,0.032 c 7.28,21.867 18.73,46.539 29.57,61.23 9.38,12.766 25.15,6.383 18.14,-6.758 -12.76,-26.402 -24.9,-61.316 -32.66,-90.7262 -4.13,-15.6407 -7.01,-29.7852 -8.01,-39.918 -0.5,-5.1289 -0.5,-9.2578 -0.13,-11.8867 0.13,-1.3789 0.5,-2.2539 0.76,-2.6289 0,-0.125 0,-0.125 0,-0.125 0,0 -0.13,-0.125 0.62,0.375 0.75,0.375 1.88,1.5 3.26,3.2539 2.62,3.2539 5.88,8.6328 9.51,15.3906 7.25,13.3906 16.26,32.0351 26.78,51.0586 11.76,21.3947 23.9,43.4217 34.78,60.0667 5.39,8.258 10.64,15.265 15.4,20.273 4.88,5.004 9.38,8.512 14.64,8.133 2.13,-0.125 4.13,-1.125 5.51,-2.629 1.37,-1.379 2.37,-3.129 3.25,-5.129 1.75,-4.133 2.63,-9.262 3.38,-15.394 1.25,-12.141 1.25,-27.907 0.87,-43.672 -0.25,-15.766 -0.87,-31.6604 -0.62,-43.5472 0.12,-5.8828 0.5,-10.8867 1,-14.2695 0.24,-1.25 0.5,-2 0.87,-2.75 0.25,0.2461 0.38,0.3711 0.75,0.875 1.75,1.875 4.14,5.2578 7.14,9.7578 6.13,9.1407 14.76,23.0274 27.4,41.5509 12.89,18.769 26.78,39.043 39.42,54.434 6.26,7.632 12.26,14.14 17.77,18.519 4.13,3.379 8.01,5.887 12.02,6.508 1.25,0.129 2.62,0.129 4,-0.25 2.63,-0.5 5.26,-2.254 6.63,-4.879 1.5,-2.754 2,-6.008 1.88,-10.137 -0.13,-8.258 -2.5,-20.523 -7.51,-39.543 -4.01,-15.156 -8.99,-30.953 -12.97,-45.6755 -3.48,-14.5742 -8.3,-47.0821 12.37,-63.2617 35.61,-22.20708 79.9,-11.2852 109.08,0.6523 l 0.04,0.0156 0.05,0.0235 c 10,4.2851 15.55,7.9453 15.55,7.9453 1.03,0.3867 2.03,0.7851 3.02,1.1992 49.63,29.1289 46.79,70.6793 46.34,74.9963 l -0.02,0.172 v 0.031 l -0.01,0.121 -0.01,0.039 c -0.44,3.711 -1.03,6.012 -1.11,6.313 l -0.01,0.031 c -2.98,10.031 -8.88,21.32 -20.25,31.219 l 4.82,-8.633 c 7.38,-11.039 13.29,-23.11 11.08,-40.1448 -1.95,-15.1875 -9.11,-28.4297 -19.25,-38.9336 v 0.0039 l -0.03,-0.0312 c -3.58,-3.7031 -7.53,-7.0703 -11.76,-10.0586 l -0.01,-0.0117 c -0.09,-0.0703 -0.57,-0.4219 -1.45,-1 -2.26,-1.5313 -4.58,-2.9532 -6.97,-4.2696 -29.41,-17.8242 -59.2,-19.1328 -65.17,-19.207 l -2.49,-0.3945 1.41,0.3945 8.91,2.7383 c 10.66,3.4726 28,9.7461 44.32,18.457 l -0.31,0.4649 c 2.3,0.9492 4.55,2 6.76,3.1445 9.04,5.3164 17.42,11.4023 23.72,18.1914 12.77,14.2383 19.27,32.5505 13.39,51.3355 -4.6,14.665 -22,40.461 -38.2,53.153 l -3.61,2.617 0.06,-0.02 0.18,-0.07 0.28,-0.113 0.17,-0.07 0.22,-0.09 c 0.83,-0.344 1.62,-0.684 2.36,-1.024 14.38,-6.422 70.89,-35.172 59.52,-85.7341 z M 549.922,332.051 c 53.957,26.25 86.183,61.687 96.683,106.308 l 0.438,2.625 c 0,4.668 -2.188,7 -6.559,7 -8.754,0 -22.898,-14.586 -42.437,-43.746 -18.082,-22.75 -34.563,-46.812 -49.438,-72.187 h 1.313" /><path
         id="path22"
         style="fill:#72b6e5;fill-opacity:1;fill-rule:nonzero;stroke:none"
         d="m 1602.05,375.508 c 5.62,-46.512 16.35,-45.488 33.2,-65.578 18.77,-22.399 29.96,-50.684 2.93,-71.575 3.69,8.879 5.71,17.258 6.26,25.055 -0.54,21.176 -14.47,39.317 -22.04,47.66 -1.58,1.496 -3.2,3.129 -4.81,4.895 l -0.01,0.008 0.01,-0.004 c -12.7,13.937 -24.82,35.824 -15.54,59.539 z m -48.37,-175.02 c 0,0 -2.2,-4.394 -3.14,-11.754 -0.56,-3.671 -0.66,-7.367 -0.34,-11.011 0.26,-6.473 1.66,-13.844 5.59,-20.5 4.56,-9.91 12.43,-20.797 25.55,-31.879 0,0 24.98,-23.653 20.85,-39.5393 0,0 1.34,3.3594 1.77,8.5078 1.18,15.8085 -14.31,33.6755 -15.77,35.3165 l -0.05,0.059 -0.01,0.007 -0.03,0.039 -0.01,0.016 c -1.82,2.027 -3.82,4.117 -6,6.27 l 0.01,-0.004 -0.01,0.004 c -2,1.972 -4.16,3.992 -6.49,6.058 -20.13,20.356 -20.79,37.91 -19.21,46.981 v -0.004 l 0.02,0.093 0.06,0.321 c 3.69,20.344 19.98,33.433 19.98,33.433 -7.49,-9.3 -12.06,-24.871 -12.23,-25.484 -2.78,-15.605 2.99,-27.031 2.99,-27.031 3.53,-8.035 10.56,-17.555 23.45,-30.153 26.87,-26.261 35.55,-41.6832 20.01,-69.6988 27.92,21.1718 4.7,50.7418 -8.75,68.0858 -11.11,14.324 -35.57,32.727 -30.24,58.492 l 0.28,1.141 c 0.14,1.055 0.59,2.504 1.44,4.434 v 0.007 c 4.09,10.489 12.54,20.121 20.98,27.766 l 0.08,0.051 c 11.15,10.269 22.02,16.605 23.14,17.25 v 0.004 l 0.03,0.015 0.03,0.016 0.01,0.004 0.01,0.004 0.01,0.008 v 0.003 l -7.52,-2.558 1.36,0.879 6.16,1.679 c 0,0 -50.48,-11.046 -64.01,-47.343 z m 106.24,115.071 v -0.004 c -0.29,0.16 -0.58,0.316 -0.88,0.465 0,0 1.32,-1.036 3.18,-3.043 5.07,-6.411 15.99,-24.743 5.98,-54.747 -0.83,-1.671 -1.76,-3.375 -2.79,-5.105 0.47,0.359 0.92,0.73 1.36,1.113 9.27,8.071 12.32,20.778 10.74,33.66 -1.7,13.891 -7.82,22.372 -17.59,27.657 z M 1596.23,207.23 c 20.61,1.684 83.59,38.129 59.89,87.708 -9.85,20.601 -25.92,25.109 -37.27,43.886 -13.91,23.024 -12.27,37.293 -4.03,67.301 -11.71,-11.281 -22.68,-36.496 -20.44,-57.426 6.34,-58.863 95.14,-65.219 5.98,-137.437 l -4.13,-4.032" /><path
         id="path24"
         style="fill:#72b6e5;fill-opacity:1;fill-rule:evenodd;stroke:none"
         d="m 1120.88,729.504 c 14.38,-2.324 15.68,-11.184 18.6,-17.941 1.68,3.05 2.78,15.742 19.2,18.156 -7.82,1.66 -12.78,4.152 -16.73,11.398 -1.56,2.848 -1.44,4.918 -2.44,7.231 -2.09,-6.192 -2.01,-8.028 -6.22,-12.16 -1.78,-1.75 -2.36,-2.614 -5.13,-4.051 -0.89,-0.461 -2.22,-1.016 -3.25,-1.348 l -4.03,-1.285" /><path
         id="path26"
         style="fill:#72b6e5;fill-opacity:1;fill-rule:evenodd;stroke:none"
         d="m 1098.91,751.266 c 8.71,-1.594 9.69,-8.106 11.42,-11.164 2.06,7.41 4.64,9.054 11.61,11.503 -6.22,1.977 -10.43,4.528 -11.5,11.375 -0.09,-0.132 -0.18,-0.179 -0.22,-0.406 -0.03,-0.219 -0.16,-0.297 -0.21,-0.394 -1.82,-3.922 -2.13,-6.367 -7.03,-8.95 -0.68,-0.359 -1.06,-0.476 -1.75,-0.769 -0.25,-0.109 -0.93,-0.391 -1.15,-0.5 -1.2,-0.613 -0.49,-0.172 -1.17,-0.695" /><path
         id="path28"
         style="fill:#72b6e5;fill-opacity:1;fill-rule:evenodd;stroke:none"
         d="m 1049.76,574.391 c 29.98,-27.848 55.02,2.5 73.89,-24.774 6.33,-9.144 27.33,-46.867 27.46,-54.996 0.2,-12.883 -26.14,-28.121 -26.51,-38.055 2.47,-1.875 2.53,-1.781 5.93,-0.992 11.21,2.602 30.99,12.508 40.77,17.824 5.8,3.145 40.11,20.872 39.35,29.907 -5.38,3.074 -20.82,-1.52 -27.85,-2.504 -10.17,-1.426 -17.81,-3.289 -24.26,7.316 l -22.7,41.313 c -20.79,33.324 24.67,39.531 16.89,81.293 -3.29,17.644 -15.11,31.648 -27,43.625 -9.32,9.379 -16.42,16.093 -25.17,26.297 -4.62,5.386 -4.77,7.683 -8.1,7.128 0.01,-6.863 32.99,-39.535 38.77,-46.726 45.67,-56.871 -21.84,-98.43 -61.63,-90.496 -2.59,0.515 -6.62,2.215 -10.65,4.668 -8.59,5.465 -14.74,14.781 -18.9,23.41 -0.53,1.312 -1.04,2.562 -1.76,3.879 -1.8,4.176 -3.11,7.996 -4,10.894 -2.65,9.243 -5.58,22.086 -8.51,32.942 l -1,-13.348 c 1.15,-5.195 2.11,-10.273 3.2,-15.348 0.85,-4 2.07,-7.699 3.2,-11.507 3.28,-9.707 9.06,-22.52 18.58,-31.75" /><path
         id="path30"
         style="fill:#72b6e5;fill-opacity:1;fill-rule:evenodd;stroke:none"
         d="m 1025.04,666.543 v -0.004 c 0.15,-1.055 -0.16,-2.137 -0.64,-3.644 -2.21,-10.676 -11,-41.227 -39.478,-42.25 -16.906,-0.762 -40.488,9.734 -52.602,23.886 -22.351,26.133 -6.285,46.778 10.211,66.942 l 0.418,-0.743 c 2.192,-3.746 13.207,-20.593 35.727,-24.757 1.051,-0.188 2.172,-0.368 3.394,-0.551 14.946,-2.207 29.81,-3.617 40.92,-15.438 1.3,-1.386 1.9,-2.406 2.05,-3.441" /><path
         id="path32"
         style="fill:#72b6e5;fill-opacity:1;fill-rule:evenodd;stroke:none"
         d="m 1025.04,666.543 v -0.004 c 0.15,-1.055 -0.16,-2.137 -0.64,-3.644 -2.21,-10.676 -11,-41.227 -39.478,-42.25 -16.906,-0.762 -40.488,9.734 -52.602,23.886 -22.351,26.133 -6.285,46.778 10.211,66.942 l 0.418,-0.743 c 2.192,-3.746 13.207,-20.593 35.727,-24.757 1.051,-0.188 2.172,-0.368 3.394,-0.551 14.946,-2.207 29.81,-3.617 40.92,-15.438 1.3,-1.386 1.9,-2.406 2.05,-3.441" /><g
         id="g34"><g
           clip-path="url(#clipPath40)"
           id="g36"><path
             id="path42"
             style="fill:#72b6e5;fill-opacity:1;fill-rule:evenodd;stroke:none"
             d="m 1012.21,678.047 c 0,0 0.58,-59.531 -59.702,-48.953 -60.281,10.578 36.746,-41.594 36.746,-41.594 l 55.246,66.211 -8.35,35.348 -23.94,-11.012" /><path
             id="path44"
             style="fill:#72b6e5;fill-opacity:1;fill-rule:evenodd;stroke:none"
             d="m 947.059,704.906 c 0,0 -34.086,-31.863 -8.211,-59.48 0,0 -0.239,32.683 20.453,48.371 20.691,15.687 20.691,15.687 20.691,15.687 l -32.933,-4.578" /></g></g><path
         id="path46"
         style="fill:#72b6e5;fill-opacity:1;fill-rule:evenodd;stroke:none"
         d="m 1012.98,620.16 c -29.972,-27.844 -55.015,2.504 -73.886,-24.769 -6.324,-9.145 -27.328,-46.868 -27.457,-54.996 -0.203,-12.887 26.14,-28.122 26.515,-38.055 -2.476,-1.875 -2.539,-1.785 -5.937,-0.992 -11.211,2.601 -30.985,12.507 -40.77,17.824 -5.793,3.144 -40.109,20.871 -39.347,29.906 5.375,3.074 20.82,-1.519 27.847,-2.504 10.172,-1.426 17.809,-3.289 24.254,7.321 l 22.707,41.308 c 20.785,33.32 -24.668,39.531 -16.886,81.293 3.285,17.645 15.101,31.649 27,43.625 9.316,9.379 16.418,16.094 25.168,26.297 4.617,5.383 4.765,7.684 8.101,7.129 -0.019,-6.863 -32.996,-39.535 -38.773,-46.727 -45.672,-56.871 21.839,-98.429 61.625,-90.496 2.597,0.516 6.629,2.215 10.649,4.668 8.6,5.465 14.74,14.781 18.91,23.41 0.53,1.313 1.04,2.563 1.76,3.879 1.79,4.172 3.11,7.996 4,10.895 5.15,18.019 11.39,49.742 16.64,53.668 1.6,-1.207 2.4,0.246 -0.35,-7.699 -1.1,-3.165 -1.75,-5.411 -2.58,-8.582 -1.45,-5.583 -2.65,-10.942 -3.87,-16.313 -1.3,-5.719 -2.34,-11.273 -3.53,-16.828 -0.86,-4.004 -2.07,-7.703 -3.2,-11.508 -3.28,-9.707 -9.06,-22.519 -18.59,-31.754" /><path
         id="path48"
         style="fill:#72b6e5;fill-opacity:1;fill-rule:evenodd;stroke:none"
         d="m 1119.07,667.793 v 0 c 0.97,-0.438 1.72,-1.277 2.73,-2.496 7.83,-7.59 28.9,-31.395 14.48,-55.977 -8.42,-14.675 -29.93,-28.949 -48.37,-31.578 -34.04,-4.847 -42.85,19.785 -51.02,44.524 l 0.85,-0.047 c 4.34,-0.156 24.47,0.097 40.06,16.871 0.72,0.785 1.47,1.637 2.28,2.57 9.88,11.43 19.05,23.219 34.98,26.254 1.87,0.356 3.05,0.313 4.01,-0.121" /><path
         id="path50"
         style="fill:#72b6e5;fill-opacity:1;fill-rule:evenodd;stroke:none"
         d="m 1119.07,667.793 v 0 c 0.97,-0.438 1.72,-1.277 2.73,-2.496 7.83,-7.59 28.9,-31.395 14.48,-55.977 -8.42,-14.675 -29.93,-28.949 -48.37,-31.578 -34.04,-4.847 -42.85,19.785 -51.02,44.524 l 0.85,-0.047 c 4.34,-0.156 24.47,0.097 40.06,16.871 0.72,0.785 1.47,1.637 2.28,2.57 9.88,11.43 19.05,23.219 34.98,26.254 1.87,0.356 3.05,0.313 4.01,-0.121" /><g
         id="g52"><g
           clip-path="url(#clipPath58)"
           id="g54"><path
             id="path60"
             style="fill:#72b6e5;fill-opacity:1;fill-rule:evenodd;stroke:none"
             d="m 1102.48,663.145 c 0,0 50.55,-31.446 9.29,-76.649 -41.27,-45.203 54.81,8.699 54.81,8.699 l -26.24,82.141 -34.31,11.922 -3.55,-26.113" /><path
             id="path62"
             style="fill:#72b6e5;fill-opacity:1;fill-rule:evenodd;stroke:none"
             d="m 1044.86,622.563 c 0,0 8.61,-45.86 45.79,-38.836 0,0 -27.71,17.332 -29.85,43.211 -2.14,25.875 -2.14,25.875 -2.14,25.875 l -13.8,-30.25" /></g></g></g></g></svg>