<?xml version="1.0" encoding="UTF-8" standalone="no"?>
<svg
   xmlns:dc="http://purl.org/dc/elements/1.1/"
   xmlns:cc="http://creativecommons.org/ns#"
   xmlns:rdf="http://www.w3.org/1999/02/22-rdf-syntax-ns#"
   xmlns:svg="http://www.w3.org/2000/svg"
   xmlns="http://www.w3.org/2000/svg"
   viewBox="0 0 286.72 141.42667"
   height="141.42667"
   width="286.72"
   xml:space="preserve"
   id="svg2"
   version="1.1"><metadata
     id="metadata8"><rdf:RDF><cc:Work
         rdf:about=""><dc:format>image/svg+xml</dc:format><dc:type
           rdf:resource="http://purl.org/dc/dcmitype/StillImage" /></cc:Work></rdf:RDF></metadata><defs
     id="defs6"><clipPath
       id="clipPath40"
       clipPathUnits="userSpaceOnUse"><path
         style="clip-rule:evenodd"
         id="path38"
         d="m 1184.71,796.078 v 0 c 0.15,-1.055 -0.16,-2.137 -0.65,-3.644 -2.2,-10.676 -10.99,-41.231 -39.47,-42.25 -16.9,-0.762 -40.49,9.73 -52.6,23.886 -22.35,26.133 -6.28,46.778 10.21,66.942 l 0.42,-0.742 c 2.19,-3.747 13.21,-20.594 35.72,-24.758 1.05,-0.188 2.18,-0.367 3.4,-0.551 14.94,-2.207 29.81,-3.617 40.92,-15.438 1.3,-1.386 1.9,-2.406 2.05,-3.445 z" /></clipPath><clipPath
       id="clipPath58"
       clipPathUnits="userSpaceOnUse"><path
         style="clip-rule:evenodd"
         id="path56"
         d="m 1278.74,797.332 v -0.004 c 0.97,-0.433 1.71,-1.273 2.73,-2.492 7.83,-7.594 28.9,-31.398 14.48,-55.977 -8.42,-14.675 -29.93,-28.949 -48.38,-31.578 -34.03,-4.847 -42.84,19.785 -51.01,44.524 l 0.85,-0.047 c 4.34,-0.156 24.47,0.097 40.06,16.871 0.72,0.785 1.47,1.637 2.28,2.57 9.88,11.43 19.05,23.219 34.98,26.254 1.87,0.356 3.05,0.313 4.01,-0.121 z" /></clipPath></defs><g
     transform="matrix(1.3333333,0,0,-1.3333333,0,141.42667)"
     id="g10"><g
       transform="scale(0.1)"
       id="g12"><path
         id="path14"
         style="fill:#72b6e5;fill-opacity:1;fill-rule:evenodd;stroke:none"
         d="M 0,1060.71 H 2150.36 V 0 H 0 v 1060.71" /><g
         transform="scale(10)"
         id="g16"><text
           id="text20"
           style="font-variant:normal;font-weight:normal;font-size:19.20000076px;font-family:Poppins;-inkscape-font-specification:Poppins-Regular;writing-mode:lr-tb;fill:#ffffff;fill-opacity:1;fill-rule:nonzero;stroke:none"
           transform="matrix(1,0,0,-1,82.584,39.1336)"><tspan
             id="tspan18"
             y="0"
             x="0 12.288 32.063999 37.18985 56.965851 69.945053 74.667717">um mais</tspan></text>
</g><path
         id="path22"
         style="fill:#ffffff;fill-opacity:1;fill-rule:nonzero;stroke:none"
         d="m 701.277,135.66 h -3.933 c -10.207,0 -18.379,5.106 -24.5,15.313 -4.668,8.164 -7.004,18.816 -7.004,31.937 0,29.75 14.437,67.082 43.312,111.996 8.461,14.875 12.836,26.106 13.125,33.688 -0.289,2.918 -2.48,4.664 -6.562,5.25 -27.121,0 -67.078,-39.227 -119.871,-117.684 -9.918,-18.957 -17.5,-28.437 -22.746,-28.437 h -3.5 c -4.375,0 -8.024,3.351 -10.942,10.058 l -0.437,2.192 c 3.207,44.039 34.855,115.789 94.937,215.242 8.168,11.668 13.703,20.273 16.621,25.812 -31.785,-6.125 -69.121,-9.187 -111.992,-9.187 -39.086,1.168 -112.582,4.086 -220.496,8.75 h -38.062 c -45.497,0 -81.516,-5.395 -108.059,-16.188 -6.418,-5.539 -13.563,-12.25 -21.434,-20.125 l -3.066,-0.433 c -4.082,1.168 -6.414,3.496 -6.996,6.996 4.082,11.086 22.894,20.566 56.433,28.437 22.458,5.543 53.227,8.317 92.313,8.317 24.496,0 100.617,-2.774 228.363,-8.317 h 21.875 c 52.207,0 91.727,3.938 118.559,11.813 58.043,88.957 99.457,134.019 124.246,135.183 7.875,0 11.816,-5.101 11.816,-15.308 0,-12.832 -7.875,-31.36 -23.625,-55.563 C 771.277,492.941 751.59,475.738 730.59,463.777 L 699.965,449.781 C 658.844,378.902 631.863,326.262 619.031,291.844 606.488,262.68 598.18,244.305 594.094,236.723 l 0.437,-0.875 c 53.375,72.332 97.707,108.496 132.996,108.496 12.543,-1.457 18.813,-7.438 18.813,-17.938 0,-15.75 -11.52,-42.144 -34.563,-79.183 -16.625,-27.707 -24.937,-50.457 -24.937,-68.25 0.297,-4.668 0.879,-9.039 1.754,-13.125 2.039,-12.25 6.851,-18.375 14.433,-18.375 h 3.5 c 19.543,0 52.645,32.672 99.313,98 8.836,12.957 15.66,22.644 20.48,29.062 5.688,12.192 12.336,23.363 19.125,32.453 9.004,12.145 24.899,7.012 18.266,-6.125 -10.637,-22.027 -22.523,-52.437 -28.66,-78.965 -3.375,-14.39 -5,-27.531 -4.004,-37.414 0.379,-4.882 1.504,-8.886 3.133,-11.765 1.625,-2.875 3.629,-4.758 6.629,-5.758 4.007,-1.375 8.136,-1.125 12.89,0.879 4.754,1.875 10.137,5.629 15.77,10.762 11.386,10.261 24.273,26.402 38.293,45.55 26.652,36.411 52.179,74.953 61.191,88.723 0.75,1.125 1.5,2.254 2.129,3.375 3.629,5.383 8.258,7.637 12.387,7.512 6.758,-0.25 12.011,-6.758 8.261,-14.391 -12.39,-26.156 -26.656,-59.816 -33.289,-88.976 -3.628,-15.641 -5.003,-30.157 -3.128,-41.168 1.875,-11.012 6.632,-18.52 16.019,-22.153 8.133,-3.125 17.516,-2.375 27.652,1.629 10.016,3.879 20.776,11.012 31.156,19.774 19.77,16.668 38.28,39.558 50.38,58.23 2.22,7.047 4.24,12.395 4.39,12.816 l 0.02,0.028 c 7.29,20.804 18.01,43.394 28.18,57.191 9.39,12.762 25.15,6.383 18.15,-6.758 -12.77,-26.402 -24.91,-61.316 -32.67,-90.726 -4.13,-15.641 -7,-29.785 -8,-39.918 -0.51,-5.129 -0.51,-9.262 -0.13,-11.891 0.13,-1.375 0.5,-2.25 0.75,-2.625 0,-0.125 0,-0.125 0,-0.125 0,0 -0.12,-0.125 0.63,0.375 0.75,0.375 1.87,1.5 3.25,3.254 2.63,3.254 5.88,8.633 9.51,15.391 7.26,13.39 16.27,32.035 26.78,51.058 11.76,21.395 23.9,43.422 34.79,60.067 5.38,8.258 10.64,15.265 15.39,20.273 4.88,5.004 9.39,8.508 14.64,8.133 2.13,-0.125 4.13,-1.125 5.51,-2.629 1.38,-1.379 2.38,-3.129 3.25,-5.129 1.76,-4.133 2.63,-9.262 3.38,-15.394 1.25,-12.141 1.25,-27.907 0.88,-43.672 -0.25,-15.766 -0.88,-31.66 -0.63,-43.547 0.13,-5.883 0.5,-10.887 1,-14.27 0.25,-1.25 0.5,-2 0.88,-2.754 0.25,0.25 0.37,0.375 0.75,0.879 1.75,1.875 4.13,5.258 7.13,9.758 6.13,9.141 14.77,23.028 27.41,41.547 12.89,18.774 26.78,39.047 39.42,54.438 6.25,7.632 12.26,14.14 17.77,18.519 4.13,3.379 8,5.883 12.01,6.508 1.25,0.129 2.63,0.129 4.01,-0.25 2.62,-0.5 5.25,-2.254 6.63,-4.883 1.5,-2.75 2,-6.004 1.88,-10.133 -0.13,-8.258 -2.51,-20.523 -7.51,-39.547 -6.14,-23.148 -14.52,-47.8 -18.15,-67.824 -1.75,-10.012 -2.25,-18.769 -1,-25.402 1.25,-6.633 4.13,-10.762 9.51,-13.266 6.63,-2.879 14.51,-1.625 23.4,2.754 8.88,4.508 18.52,12.262 27.78,21.524 18.77,18.398 36.41,42.796 46.8,58.816 l 0.15,0.223 c -1.35,-4.875 -3.29,-12.078 -4.95,-19.106 -10.22,-14.328 -23.34,-31 -37.24,-44.812 -9.64,-9.512 -19.65,-17.645 -29.54,-22.653 -31.66,-15.765 -64.19,2.754 -58.81,46.301 5.38,42.926 41.55,116.633 27.03,104.617 -4.38,-3.879 -9.26,-9.261 -14.52,-15.64 -12.39,-15.02 -26.28,-35.164 -39.04,-54.059 -12.51,-18.273 -21.27,-32.164 -27.4,-41.422 -3.13,-4.633 -10.39,-17.773 -18.78,-17.519 -11.51,0.375 -22.9,13.265 -21.15,62.691 1.38,28.91 7.01,68.578 -2.37,57.191 -3.01,-3.882 -6.38,-8.636 -9.89,-14.015 -10.64,-16.27 -22.65,-38.168 -34.54,-59.567 -10.38,-18.769 -19.27,-37.418 -26.65,-51.058 -3.76,-6.883 -7.13,-12.387 -10.26,-16.391 -4.38,-5.383 -9.26,-8.761 -16.15,-7.008 -12.78,3.883 -15.7,28.821 -9.79,62.18 0.12,2.508 0.52,5.363 1.09,8.371 -11.45,-15.324 -25.74,-31.429 -40.97,-44.273 -10.77,-9.133 -22.03,-16.645 -33.17,-20.895 -15.637,-6.261 -36.54,-7.386 -52.18,4.875 -20.395,16.145 -19.77,46.555 -12.762,77.336 2.5,10.641 6.129,21.903 10.387,33.039 -10.137,-14.64 -21.774,-31.285 -33.543,-47.554 -14.133,-19.27 -27.153,-35.661 -39.164,-46.551 -12.387,-11.012 -27.532,-19.02 -42.922,-12.387 -23.153,9.887 -25.903,44.047 -17.27,78.715 0.688,2.746 1.449,5.496 2.278,8.23 C 764.516,173.168 726.215,135.66 701.277,135.66 Z m 1125.333,81.567 c 0,0 -0.39,-2.114 -1.52,-5.668 -1.51,-6.168 -4.36,-12.399 -7.83,-18.133 l -0.03,-0.051 c -1.82,-3.625 -4.1,-6.98 -6.62,-10.059 -16.76,-23.261 -50.24,-50.468 -115.73,-53.55 l 0.01,0.004 c -25.24,-1.59 -44.86,5.222 -58.81,13.21 -0.8,0.493 -1.64,0.993 -2.54,1.508 -1.64,1 -3.18,2.008 -4.64,3.02 -29.79,21.797 -21.23,68.547 -14.66,91.648 11.71,37.032 27.85,73.422 17.32,64.707 -4.38,-3.879 -9.26,-9.261 -14.51,-15.64 -12.39,-15.02 -26.28,-35.164 -39.05,-54.059 -12.51,-18.273 -21.27,-32.164 -27.4,-41.422 -3.13,-4.633 -10.39,-17.773 -18.77,-17.519 -11.52,0.375 -22.9,13.265 -21.15,62.691 1.38,28.91 7.01,68.578 -2.38,57.191 -3,-3.882 -6.38,-8.636 -9.88,-14.015 -10.64,-16.27 -22.65,-38.168 -34.54,-59.567 -10.39,-18.769 -19.28,-37.418 -26.66,-51.058 -3.75,-6.883 -7.13,-12.387 -10.26,-16.391 -4.38,-5.383 -9.26,-8.761 -16.14,-7.008 -15.65,4.754 -16.52,41.043 -4.51,85.719 1.09,4.047 2.38,8.317 3.84,12.695 l 0.01,0.032 c 7.28,21.863 18.72,46.539 29.56,61.23 9.39,12.762 25.16,6.383 18.15,-6.758 -12.77,-26.402 -24.9,-61.316 -32.66,-90.726 -4.13,-15.641 -7.01,-29.785 -8.01,-39.918 -0.5,-5.129 -0.5,-9.262 -0.13,-11.891 0.13,-1.375 0.5,-2.25 0.76,-2.625 0,-0.125 0,-0.125 0,-0.125 0,0 -0.13,-0.125 0.62,0.375 0.75,0.375 1.88,1.5 3.25,3.254 2.63,3.254 5.89,8.633 9.51,15.391 7.26,13.39 16.27,32.035 26.78,51.058 11.77,21.395 23.91,43.422 34.79,60.067 5.39,8.258 10.64,15.265 15.4,20.273 4.88,5.004 9.38,8.508 14.64,8.133 2.13,-0.125 4.13,-1.125 5.5,-2.629 1.38,-1.379 2.38,-3.129 3.26,-5.129 1.75,-4.133 2.63,-9.262 3.37,-15.394 1.25,-12.141 1.25,-27.907 0.88,-43.672 -0.25,-15.766 -0.88,-31.66 -0.62,-43.547 0.12,-5.883 0.5,-10.887 0.99,-14.27 0.25,-1.25 0.51,-2 0.88,-2.754 0.25,0.25 0.38,0.375 0.75,0.879 1.75,1.875 4.13,5.258 7.14,9.758 6.13,9.141 14.76,23.028 27.4,41.547 12.89,18.774 26.78,39.047 39.42,54.438 6.26,7.632 12.26,14.14 17.77,18.519 4.13,3.379 8.01,5.883 12.01,6.508 1.25,0.129 2.63,0.129 4.01,-0.25 2.62,-0.5 5.25,-2.254 6.63,-4.883 1.5,-2.75 2,-6.004 1.88,-10.133 -0.13,-8.258 -2.5,-20.523 -7.51,-39.547 -4.01,-15.152 -8.99,-30.949 -12.97,-45.671 -3.48,-14.575 -8.3,-47.082 12.37,-63.262 35.61,-22.211 79.9,-11.285 109.08,0.652 l 0.04,0.016 0.04,0.023 c 10.01,4.285 15.56,7.942 15.56,7.942 1.03,0.39 2.03,0.789 3.02,1.203 49.63,29.129 46.79,70.679 46.34,74.992 l -0.02,0.176 v 0.031 l -0.01,0.121 -0.01,0.039 c -0.44,3.711 -1.03,6.012 -1.11,6.309 l -0.01,0.031 c -2.98,10.035 -8.88,21.324 -20.25,31.223 l 4.82,-8.633 c 7.38,-11.039 13.28,-23.11 11.08,-40.149 -1.95,-15.187 -9.11,-28.425 -19.25,-38.929 v 0.004 l -0.03,-0.032 c -3.58,-3.707 -7.53,-7.07 -11.76,-10.058 l -0.01,-0.012 c -0.09,-0.07 -0.57,-0.426 -1.45,-1.004 -2.26,-1.527 -4.58,-2.953 -6.97,-4.265 -29.41,-17.825 -59.2,-19.133 -65.17,-19.211 l -2.49,-0.391 1.41,0.391 8.9,2.742 c 10.67,3.469 28.01,9.746 44.33,18.457 l -0.31,0.465 c 2.29,0.949 4.55,2 6.76,3.144 9.04,5.317 17.42,11.403 23.72,18.188 12.76,14.242 19.27,32.554 13.38,51.34 -4.59,14.664 -21.99,40.46 -38.19,53.152 l -3.61,2.617 0.06,-0.019 0.17,-0.071 0.29,-0.113 0.17,-0.07 0.21,-0.09 c 0.84,-0.344 1.63,-0.684 2.37,-1.024 14.38,-6.422 70.89,-35.172 59.52,-85.734 z M 709.59,461.59 c 53.957,26.25 86.183,61.687 96.683,106.308 l 0.438,2.625 c 0,4.668 -2.184,7 -6.559,7 -8.754,0 -22.894,-14.585 -42.437,-43.746 -18.082,-22.75 -34.559,-46.812 -49.438,-72.187 h 1.313" /><path
         id="path24"
         style="fill:#ffffff;fill-opacity:1;fill-rule:nonzero;stroke:none"
         d="m 1761.72,505.047 c 5.62,-46.516 16.35,-45.488 33.19,-65.578 18.78,-22.399 29.97,-50.684 2.94,-71.574 3.69,8.878 5.71,17.257 6.26,25.054 -0.54,21.172 -14.47,39.317 -22.04,47.66 -1.58,1.496 -3.2,3.129 -4.81,4.895 l -0.01,0.008 0.01,-0.004 c -12.7,13.933 -24.82,35.824 -15.54,59.539 z m -48.37,-175.02 c 0,0 -2.2,-4.394 -3.14,-11.754 -0.56,-3.671 -0.66,-7.367 -0.34,-11.011 0.26,-6.473 1.65,-13.844 5.59,-20.504 4.55,-9.906 12.43,-20.793 25.55,-31.875 0,0 24.98,-23.653 20.85,-39.539 0,0 1.33,3.359 1.77,8.508 1.17,15.808 -14.31,33.675 -15.77,35.316 l -0.05,0.059 -0.01,0.007 -0.03,0.039 -0.02,0.016 c -1.82,2.027 -3.81,4.117 -5.99,6.266 v 0 0.004 c -2,1.968 -4.16,3.992 -6.49,6.058 -20.13,20.356 -20.79,37.91 -19.21,46.977 v 0 l 0.02,0.094 0.06,0.32 c 3.69,20.344 19.97,33.433 19.97,33.433 -7.48,-9.3 -12.05,-24.871 -12.22,-25.484 -2.78,-15.605 2.99,-27.031 2.99,-27.031 3.53,-8.035 10.56,-17.555 23.45,-30.153 26.87,-26.261 35.55,-41.683 20.01,-69.699 27.92,21.172 4.7,50.742 -8.75,68.086 -11.11,14.324 -35.57,32.723 -30.24,58.492 l 0.28,1.141 c 0.14,1.051 0.59,2.504 1.44,4.434 v 0.007 c 4.09,10.489 12.54,20.121 20.98,27.766 l 0.08,0.051 c 11.15,10.269 22.02,16.605 23.14,17.25 v 0.004 l 0.03,0.015 0.02,0.016 0.02,0.004 v 0.004 l 0.02,0.008 v 0.003 l -7.52,-2.558 1.36,0.879 6.16,1.679 c 0,0 -50.49,-11.046 -64.01,-47.343 z m 106.24,115.071 v -0.004 c -0.29,0.16 -0.58,0.316 -0.88,0.465 0,0 1.32,-1.036 3.18,-3.043 5.06,-6.411 15.99,-24.743 5.98,-54.746 -0.83,-1.672 -1.76,-3.375 -2.79,-5.106 0.47,0.356 0.92,0.731 1.36,1.109 9.27,8.071 12.32,20.782 10.74,33.665 -1.7,13.886 -7.82,22.371 -17.59,27.656 z m -63.7,-108.328 c 20.62,1.683 83.6,38.128 59.9,87.707 -9.85,20.601 -25.92,25.109 -37.27,43.886 -13.91,23.024 -12.27,37.293 -4.03,67.301 -11.71,-11.281 -22.68,-36.496 -20.44,-57.426 6.34,-58.863 95.14,-65.222 5.98,-137.437 l -4.14,-4.031" /><path
         id="path26"
         style="fill:#ffffff;fill-opacity:1;fill-rule:evenodd;stroke:none"
         d="m 1280.55,859.039 c 14.38,-2.32 15.68,-11.18 18.6,-17.937 1.68,3.05 2.78,15.742 19.2,18.156 -7.82,1.66 -12.78,4.152 -16.74,11.398 -1.55,2.848 -1.43,4.918 -2.43,7.231 -2.09,-6.192 -2.01,-8.028 -6.22,-12.164 -1.78,-1.746 -2.36,-2.61 -5.13,-4.047 -0.89,-0.461 -2.22,-1.016 -3.25,-1.348 l -4.03,-1.289" /><path
         id="path28"
         style="fill:#ffffff;fill-opacity:1;fill-rule:evenodd;stroke:none"
         d="m 1258.58,880.805 c 8.71,-1.594 9.69,-8.106 11.42,-11.164 2.06,7.41 4.64,9.054 11.61,11.504 -6.22,1.976 -10.43,4.527 -11.51,11.375 -0.08,-0.133 -0.17,-0.18 -0.21,-0.407 -0.03,-0.218 -0.16,-0.297 -0.21,-0.394 -1.82,-3.922 -2.13,-6.367 -7.03,-8.949 -0.68,-0.36 -1.06,-0.477 -1.75,-0.774 -0.25,-0.105 -0.93,-0.387 -1.15,-0.496 -1.2,-0.613 -0.5,-0.176 -1.17,-0.695" /><path
         id="path30"
         style="fill:#fde2e0;fill-opacity:1;fill-rule:evenodd;stroke:none"
         d="m 1209.43,703.93 c 29.98,-27.848 55.02,2.5 73.89,-24.774 6.33,-9.144 27.33,-46.867 27.46,-54.996 0.2,-12.887 -26.14,-28.121 -26.52,-38.055 2.48,-1.875 2.54,-1.781 5.94,-0.992 11.21,2.602 30.99,12.508 40.77,17.825 5.79,3.144 40.11,20.871 39.35,29.906 -5.38,3.074 -20.82,-1.52 -27.85,-2.504 -10.17,-1.426 -17.81,-3.289 -24.26,7.316 l -22.7,41.313 c -20.79,33.32 24.67,39.531 16.88,81.293 -3.28,17.644 -15.1,31.648 -27,43.625 -9.31,9.379 -16.41,16.093 -25.16,26.297 -4.62,5.386 -4.77,7.683 -8.11,7.129 0.02,-6.868 33,-39.54 38.78,-46.727 45.67,-56.871 -21.84,-98.43 -61.63,-90.496 -2.59,0.515 -6.62,2.215 -10.65,4.668 -8.59,5.465 -14.74,14.781 -18.9,23.41 -0.53,1.312 -1.04,2.562 -1.77,3.879 -1.79,4.176 -3.1,7.996 -3.99,10.894 -2.65,9.243 -5.58,22.086 -8.51,32.938 l -1,-13.344 c 1.15,-5.195 2.11,-10.273 3.19,-15.351 0.86,-3.996 2.08,-7.7 3.21,-11.504 3.28,-9.707 9.06,-22.52 18.58,-31.75" /><path
         id="path32"
         style="fill:#ffffff;fill-opacity:1;fill-rule:evenodd;stroke:none"
         d="m 1184.71,796.078 v 0 c 0.15,-1.055 -0.16,-2.137 -0.65,-3.644 -2.2,-10.676 -10.99,-41.231 -39.47,-42.25 -16.9,-0.762 -40.49,9.73 -52.6,23.886 -22.35,26.133 -6.28,46.778 10.21,66.942 l 0.42,-0.742 c 2.19,-3.747 13.21,-20.594 35.72,-24.758 1.05,-0.188 2.18,-0.367 3.4,-0.551 14.94,-2.207 29.81,-3.617 40.92,-15.438 1.3,-1.386 1.9,-2.406 2.05,-3.445" /><g
         id="g34"><g
           clip-path="url(#clipPath40)"
           id="g36"><path
             id="path42"
             style="fill:#ffffff;fill-opacity:1;fill-rule:evenodd;stroke:none"
             d="m 1171.88,807.586 c 0,0 0.58,-59.531 -59.7,-48.953 -60.29,10.578 36.74,-41.594 36.74,-41.594 l 55.25,66.207 -8.35,35.352 -23.94,-11.012" /><path
             id="path44"
             style="fill:#ffffff;fill-opacity:1;fill-rule:evenodd;stroke:none"
             d="m 1106.73,834.445 c 0,0 -34.09,-31.867 -8.21,-59.48 0,0 -0.24,32.683 20.45,48.371 20.69,15.687 20.69,15.687 20.69,15.687 l -32.93,-4.578" /></g></g><path
         id="path46"
         style="fill:#fde2e0;fill-opacity:1;fill-rule:evenodd;stroke:none"
         d="m 1172.65,749.699 c -29.97,-27.844 -55.02,2.504 -73.89,-24.769 -6.32,-9.145 -27.32,-46.867 -27.45,-54.996 -0.21,-12.887 26.14,-28.121 26.51,-38.055 -2.48,-1.875 -2.54,-1.785 -5.94,-0.992 -11.21,2.601 -30.98,12.508 -40.77,17.824 -5.79,3.144 -40.11,20.871 -39.34,29.906 5.37,3.074 20.82,-1.519 27.84,-2.504 10.18,-1.425 17.81,-3.289 24.26,7.317 l 22.71,41.312 c 20.78,33.321 -24.67,39.531 -16.89,81.293 3.28,17.645 15.1,31.649 27,43.625 9.31,9.379 16.42,16.094 25.17,26.297 4.61,5.383 4.76,7.684 8.1,7.129 -0.02,-6.863 -33,-39.535 -38.78,-46.727 -45.67,-56.871 21.84,-98.429 61.63,-90.496 2.6,0.516 6.63,2.215 10.65,4.668 8.6,5.465 14.74,14.782 18.9,23.41 0.54,1.309 1.04,2.563 1.77,3.879 1.79,4.172 3.1,7.996 3.99,10.895 5.16,18.019 11.4,49.738 16.65,53.668 1.59,-1.207 2.4,0.246 -0.35,-7.699 -1.1,-3.164 -1.75,-5.411 -2.58,-8.582 -1.45,-5.582 -2.66,-10.942 -3.87,-16.313 -1.31,-5.719 -2.34,-11.273 -3.53,-16.828 -0.86,-4.004 -2.08,-7.703 -3.2,-11.508 -3.28,-9.707 -9.06,-22.519 -18.59,-31.754" /><path
         id="path48"
         style="fill:#f78d8b;fill-opacity:1;fill-rule:evenodd;stroke:none"
         d="m 1278.74,797.332 v -0.004 c 0.97,-0.433 1.71,-1.273 2.73,-2.492 7.83,-7.594 28.9,-31.398 14.48,-55.977 -8.42,-14.675 -29.93,-28.949 -48.38,-31.578 -34.03,-4.847 -42.84,19.785 -51.01,44.524 l 0.85,-0.047 c 4.34,-0.156 24.47,0.097 40.06,16.871 0.72,0.785 1.47,1.637 2.28,2.57 9.88,11.43 19.05,23.219 34.98,26.254 1.87,0.356 3.05,0.313 4.01,-0.121" /><path
         id="path50"
         style="fill:#ffffff;fill-opacity:1;fill-rule:evenodd;stroke:none"
         d="m 1278.74,797.332 v -0.004 c 0.97,-0.433 1.71,-1.273 2.73,-2.492 7.83,-7.594 28.9,-31.398 14.48,-55.977 -8.42,-14.675 -29.93,-28.949 -48.38,-31.578 -34.03,-4.847 -42.84,19.785 -51.01,44.524 l 0.85,-0.047 c 4.34,-0.156 24.47,0.097 40.06,16.871 0.72,0.785 1.47,1.637 2.28,2.57 9.88,11.43 19.05,23.219 34.98,26.254 1.87,0.356 3.05,0.313 4.01,-0.121" /><g
         id="g52"><g
           clip-path="url(#clipPath58)"
           id="g54"><path
             id="path60"
             style="fill:#ffffff;fill-opacity:1;fill-rule:evenodd;stroke:none"
             d="m 1262.15,792.68 c 0,0 50.55,-31.442 9.29,-76.645 -41.27,-45.203 54.81,8.699 54.81,8.699 l -26.25,82.141 -34.31,11.918 -3.54,-26.113" /><path
             id="path62"
             style="fill:#ffffff;fill-opacity:1;fill-rule:evenodd;stroke:none"
             d="m 1204.53,752.102 c 0,0 8.61,-45.86 45.79,-38.836 0,0 -27.71,17.332 -29.85,43.207 -2.14,25.879 -2.14,25.879 -2.14,25.879 l -13.8,-30.25" /></g></g></g></g></svg>